PathFileType	4	(X/Y/Z)	C:/Users/opensim2020/Desktop/walking_exp_matlab/subject03_walking07_straight_02.trc																																																																																																																																								
DataRate	CameraRate	NumFrames	NumMarkers	Units	OrigDataRate	OrigDataStartFrame	OrigNumFrames																																																																																																																																				
100	100	4	46	mm	100	1687	252																																																																																																																																				
Frame#	Time	LFHD			RFHD			LBHD			RBHD			C7			T10			CLAV			STRN			RBAK			LSHO			LUPA			LELB			LFRM			LWRA			LWRB			LFIN			RSHO			RUPA			RELB			RFRM			RWRA			RWRB			RFIN			LASI			RASI			LPSI			RPSI			LTHI			LKNE			LTIB			LANK			LHEE			LTOE			RTHI			RKNE			RTIB			RANK			RHEE			RTOE			*39			*40			*41			*42			*43			*44			*45		
		X1	Y1	Z1	X2	Y2	Z2	X3	Y3	Z3	X4	Y4	Z4	X5	Y5	Z5	X6	Y6	Z6	X7	Y7	Z7	X8	Y8	Z8	X9	Y9	Z9	X10	Y10	Z10	X11	Y11	Z11	X12	Y12	Z12	X13	Y13	Z13	X14	Y14	Z14	X15	Y15	Z15	X16	Y16	Z16	X17	Y17	Z17	X18	Y18	Z18	X19	Y19	Z19	X20	Y20	Z20	X21	Y21	Z21	X22	Y22	Z22	X23	Y23	Z23	X24	Y24	Z24	X25	Y25	Z25	X26	Y26	Z26	X27	Y27	Z27	X28	Y28	Z28	X29	Y29	Z29	X30	Y30	Z30	X31	Y31	Z31	X32	Y32	Z32	X33	Y33	Z33	X34	Y34	Z34	X35	Y35	Z35	X36	Y36	Z36	X37	Y37	Z37	X38	Y38	Z38	X39	Y39	Z39	X40	Y40	Z40	X41	Y41	Z41	X42	Y42	Z42	X43	Y43	Z43	X44	Y44	Z44	X45	Y45	Z45	X46	Y46	Z46
																																																																																																																																											
221	2.2	1019.76654	1596.72681	912.88452	1002.96704	1610.29089	1044.1012	889.15186	1561.07813	904.789	878.22809	1573.97595	1034.31824	848.33374	1399.53748	969.11163	830.7074	1082.97131	978.98987	971.01312	1327.50183	985.37549	1024.09827	1166.58765	992.68573	793.01385	1222.48389	1067.09497	941.12744	1356.69373	824.91803	937.80316	1155.43604	761.68304	940.58716	1031.69531	755.44714	956.19592	901.97284	760.60046	959.37909	782.69916	793.25165	945.18329	789.40289	738.98529	943.80603	703.66699	752.24451	908.63074	1355.46985	1138.89832	930.33282	1136.2251	1217.65991	964.53326	1029.26086	1234.47656	1012.27167	901.05432	1238.37964	1067.70581	817.96307	1204.9939	1035.41174	803.46155	1246.03784	1078.26392	742.71912	1238.18481	1020.47937	934.46558	887.41571	985.13513	920.71027	1120.53845	852.42438	952.51434	912.99335	833.62415	953.59766	1061.24731	1028.56152	639.59308	828.65466	1077.11768	472.79855	873.68848	1061.57361	271.73184	866.57458	1079.60767	63.2375	907.41882	1043.28662	30.27118	945.20746	1233.66992	30.14508	918.34192	890.63196	627.72491	1165.20544	882.7287	446.21869	1148.9552	733.11084	320.065	1144.41919	579.87683	169.7433	1095.12769	535.30579	182.41141	1037.02026	629.38745	34.39889	1078.50684	NaN	NaN	NaN	936.90515	1666.80017	949.4903	NaN	NaN	NaN	NaN	NaN	NaN	NaN	NaN	NaN	NaN	NaN	NaN	NaN	NaN	NaN
222	2.21	1028.9032	1597.9198	911.3125	1012.1568	1611.64063	1042.43457	898.8327	1561.74866	902.84613	887.55847	1574.94885	1032.5531	857.87427	1400.4541	967.76343	840.93549	1084.01733	977.68976	980.9444	1328.79211	984.14764	1034.2561	1168.03479	991.57617	803.23578	1224.00891	1066.6311	951.28619	1358.30322	823.96735	949.95251	1157.51453	760.13544	953.94385	1033.94897	753.79163	971.64471	904.36249	759.17432	976.74585	785.06982	792.16418	962.65747	791.58582	737.83771	962.22583	705.71265	751.30499	918.66364	1357.18176	1137.42383	939.04504	1137.74341	1216.10229	972.02167	1030.37622	1232.70471	1018.15381	901.59131	1236.5321	1072.47534	817.57635	1203.1123	1040.06079	803.56378	1244.3363	1081.88757	741.87347	1236.10608	1030.31018	936.0816	885.39307	995.46747	921.92877	1118.69739	862.64923	953.82361	911.62927	843.69092	954.42249	1059.72095	1034.33118	639.61456	826.3208	1082.27966	472.36823	872.32837	1064.7113	271.98816	866.37756	1079.92078	63.10932	908.12817	1043.27283	30.35557	945.33472	1233.84961	30.03701	918.49829	905.78925	626.86072	1164.21753	902.14777	445.34534	1148.68921	751.84595	321.40524	1144.65601	595.34808	174.62187	1095.93616	550.70062	191.65622	1038.36072	636.25494	38.16626	1077.75098	NaN	NaN	NaN	946.01038	1667.78589	947.57666	NaN	NaN	NaN	NaN	NaN	NaN	NaN	NaN	NaN	NaN	NaN	NaN	NaN	NaN	NaN
223	2.22	1038.08411	1598.99182	909.6991	1021.26575	1612.97327	1040.73584	908.13641	1562.45227	901.45087	896.77985	1575.85999	1031.00403	867.28986	1401.22815	966.54187	851.13373	1084.81006	975.9342	990.63379	1329.92188	982.97858	1044.14355	1169.23389	990.49127	813.13824	1225.21851	1066.06152	961.26471	1359.59741	823.04352	961.93341	1159.22876	758.55841	967.07214	1035.67676	752.07178	987.14124	906.4588	757.71967	994.7785	787.43976	790.93268	980.3092	793.45227	736.70935	980.99432	707.50818	750.44226	928.66736	1358.54871	1136.10925	947.68481	1138.91199	1214.76099	979.43835	1031.10547	1231.19775	1024.13684	901.75854	1234.85278	1077.32605	816.90259	1201.35327	1044.77234	803.35809	1242.63464	1085.56531	740.69574	1233.94006	1040.19385	937.16345	883.41766	1005.35999	922.97388	1116.85022	872.83606	954.69965	909.71838	853.39087	954.90442	1057.84558	1038.8822	638.92139	824.74988	1087.41992	471.95828	871.12225	1067.69763	272.14795	866.08624	1080.02307	63.37021	908.14081	1043.12439	30.42641	945.40454	1233.95117	29.93666	918.68506	920.6178	626.06097	1162.95972	921.47198	444.65213	1148.1416	771.24304	322.15155	1145.27136	610.67444	180.39673	1096.36902	566.0282	200.02861	1039.32153	646.31989	42.99223	1078.13477	NaN	NaN	NaN	954.9823	1668.64392	945.71228	NaN	NaN	NaN	NaN	NaN	NaN	NaN	NaN	NaN	NaN	NaN	NaN	NaN	NaN	NaN
224	2.23	1047.52905	1599.92175	908.03906	1030.33765	1614.28125	1039.104	917.42572	1563.05359	899.91949	905.92346	1576.72144	1029.45508	876.52026	1402.0769	965.28412	860.95898	1085.65662	974.39008	1000.09509	1330.95349	981.87134	1053.85742	1170.40833	989.45789	822.68176	1226.28821	1065.42871	971.12823	1360.58118	822.02704	973.73523	1160.53711	757.0379	980.22699	1037.03918	750.18805	1002.73779	908.27277	756.10938	1012.59125	789.46021	789.80835	998.17438	795.08453	735.52399	1000.52374	709.23431	749.45636	938.41693	1359.41516	1134.83179	956.35132	1139.6012	1213.54565	987.00317	1031.4458	1229.9054	1030.18127	901.51794	1233.38086	1082.30298	816.05542	1199.75916	1049.6123	802.80237	1241.13318	1089.57043	739.48383	1232.07654	1049.85596	937.66602	881.78894	1014.85632	923.78223	1115.45215	882.90234	955.29547	907.5509	862.77588	955.03522	1055.68701	1044.02637	638.28351	823.01111	1092.44556	471.35333	870.11536	1070.73608	272.26141	865.84161	1079.96277	63.83675	907.96912	1042.96912	30.60472	945.34351	1234.06433	29.90096	918.7514	935.00964	625.45947	1161.20032	940.8327	444.16528	1147.43982	790.7868	322.81351	1145.73462	626.29297	186.27577	1096.14783	581.79382	206.49174	1038.88379	659.91998	48.24841	1079.81067	NaN	NaN	NaN	963.81378	1669.0437	943.92389	NaN	NaN	NaN	NaN	NaN	NaN	NaN	NaN	NaN	NaN	NaN	NaN	NaN	NaN	NaN
